<?xml version="1.0" ?><svg enable-background="new 0 0 64 64" height="64px" version="1.1" viewBox="0 0 64 64" width="64px" xml:space="preserve" xmlns="http://www.w3.org/2000/svg" xmlns:xlink="http://www.w3.org/1999/xlink"><g id="Layer_1"><g><circle cx="32" cy="32" fill="#C75C5C" r="32"/></g><g opacity="0.2"><path d="M52,50c0,2.209-1.791,4-4,4H16c-2.209,0-4-1.791-4-4V22c0-2.209,1.791-4,4-4h32c2.209,0,4,1.791,4,4V50z" fill="#231F20"/></g><g><path d="M52,48c0,2.209-1.791,4-4,4H16c-2.209,0-4-1.791-4-4V20c0-2.209,1.791-4,4-4h32c2.209,0,4,1.791,4,4V48z" fill="#E0E0D1"/></g><g opacity="0.2"><path d="M52,46c0,2.209-1.791,4-4,4H16c-2.209,0-4-1.791-4-4V18c0-2.209,1.791-4,4-4h32c2.209,0,4,1.791,4,4V46z" fill="#231F20"/></g><g><path d="M52,44c0,2.209-1.791,4-4,4H16c-2.209,0-4-1.791-4-4V16c0-2.209,1.791-4,4-4h32c2.209,0,4,1.791,4,4V44z" fill="#E0E0D1"/></g><g><rect fill="#4F5D73" height="12" width="12" x="16" y="24"/></g><g><rect fill="#4F5D73" height="1" width="12" x="36" y="27"/></g><g><rect fill="#4F5D73" height="1" width="12" x="36" y="25"/></g><g><rect fill="#4F5D73" height="4" width="3" x="32" y="24"/></g><g><rect fill="#4F5D73" height="1" width="16" x="32" y="30"/></g><g><rect fill="#4F5D73" height="1" width="16" x="32" y="32"/></g><g><rect fill="#4F5D73" height="1" width="16" x="32" y="34"/></g><g><rect fill="#4F5D73" height="1" width="16" x="32" y="36"/></g><g><rect fill="#4F5D73" height="1" width="12.125" x="35.875" y="39"/></g><g><rect fill="#4F5D73" height="1" width="12" x="16" y="39"/></g><g><rect fill="#4F5D73" height="1" width="12" x="16" y="41"/></g><g><rect fill="#4F5D73" height="1" width="12" x="16" y="43"/></g><g><rect fill="#4F5D73" height="1" width="12" x="16" y="45"/></g><g><rect fill="#4F5D73" height="1" width="16" x="32" y="41"/></g><g><rect fill="#4F5D73" height="1" width="16" x="32" y="43"/></g><g><rect fill="#4F5D73" height="1" width="16" x="32" y="45"/></g><g><circle cx="24" cy="28" fill="#E0E0D1" r="2"/></g><g><rect fill="#4F5D73" height="4" width="32" x="16" y="16"/></g><g><g><path d="M27,35v-2.414l-0.785-0.781c-0.487-0.484-1.276-0.484-1.763,0l-0.844,0.839l-1.928-1.916     c-0.976-0.97-2.559-0.97-3.536,0L17,31.865V35H27z" fill="#E0E0D1"/></g></g></g><g id="Layer_2"/></svg>